<?xml version="1.0" encoding="UTF-8" standalone="no"?>
<!-- Created with Inkscape (http://www.inkscape.org/) -->

<svg
   width="148mm"
   height="210mm"
   viewBox="0 0 148 210"
   version="1.1"
   id="svg1"
   inkscape:version="1.3 (0e150ed6c4, 2023-07-21)"
   sodipodi:docname="arcano-nes-chiptune-synth-case.svg"
   xmlns:inkscape="http://www.inkscape.org/namespaces/inkscape"
   xmlns:sodipodi="http://sodipodi.sourceforge.net/DTD/sodipodi-0.dtd"
   xmlns="http://www.w3.org/2000/svg"
   xmlns:svg="http://www.w3.org/2000/svg">
  <sodipodi:namedview
     id="namedview1"
     pagecolor="#505050"
     bordercolor="#eeeeee"
     borderopacity="1"
     inkscape:showpageshadow="0"
     inkscape:pageopacity="0"
     inkscape:pagecheckerboard="0"
     inkscape:deskcolor="#d1d1d1"
     inkscape:document-units="mm"
     inkscape:zoom="1.0469406"
     inkscape:cx="457.52357"
     inkscape:cy="318.06962"
     inkscape:window-width="1920"
     inkscape:window-height="1017"
     inkscape:window-x="2712"
     inkscape:window-y="1070"
     inkscape:window-maximized="1"
     inkscape:current-layer="layer1" />
  <defs
     id="defs1" />
  <g
     inkscape:label="Layer 1"
     inkscape:groupmode="layer"
     id="layer1">
    <path
       id="rect846"
       style="fill:#b3b3b3;stroke-width:0.806145"
       d="m 39.646159,20 c 0.0017,0.0082 9.52e-4,0.01714 0.0026,0.02532 -1.508738,0.177775 -2.646456,1.455326 -2.648934,2.974496 0.0017,0.02845 0.0037,0.05688 0.0062,0.08527 -0.002,-2.83e-4 -0.0042,-2.3e-4 -0.0062,-5.17e-4 v 5.915401 H 23.274032 c -1.813867,0 -3.274219,1.460357 -3.274219,3.274219 v 5.451863 c 0,1.813866 1.460352,3.273702 3.274219,3.273702 h 13.725777 v 18.000457 0.14469 c 0.0031,-0.002 0.0067,-0.0016 0.0098,-0.0036 0.0753,1.59757 1.390657,2.85518 2.989999,2.85874 0.06438,-0.003 0.128669,-0.0075 0.192753,-0.01447 -5.65e-4,0.005 -5.49e-4,0.0095 -0.001,0.01447 h 65.808385 c 1.66197,0 3.00034,-1.33787 3.00034,-2.99981 v -3.50057 c -10e-5,-1.65687 -1.34343,-3 -3.00034,-2.99981 H 90.617208 c -0.896016,0 -1.617472,-0.72145 -1.617472,-1.61748 v -1.765263 c 0,-0.896025 0.721456,-1.617472 1.617472,-1.617472 h 15.382522 c 1.65691,1.9e-4 3.00024,-1.342911 3.00034,-2.999817 V 22.999817 C 109.00007,21.337846 107.6617,20 105.99973,20 H 85.999919 85.806132 v 0.01395 c -1.575414,0.101796 -2.802394,1.407166 -2.806547,2.985865 0.0023,0.04485 0.0055,0.08965 0.0098,0.134358 h -0.0098 v 5.560901 c 0,2.384932 -1.919714,4.305164 -4.304647,4.305164 h -1.390096 c -2.384916,0 -4.305163,-1.920232 -4.305163,-4.305164 V 22.999817 C 72.999578,21.34312 71.656553,20.000101 69.999862,20 c -0.02672,0.0015 -0.05343,0.0034 -0.0801,0.0057 0.0011,-0.0018 0.0015,-0.0039 0.0026,-0.0057 H 39.999626 Z m 0.103869,2.000394 a 1.75,1.75 0 0 1 1.749764,1.749764 1.75,1.75 0 0 1 -1.749764,1.749764 1.75,1.75 0 0 1 -1.75028,-1.749764 1.75,1.75 0 0 1 1.75028,-1.749764 z m 65.499882,0 a 1.75,1.75 0 0 1 1.75028,1.749764 1.75,1.75 0 0 1 -1.75028,1.749764 1.75,1.75 0 0 1 -1.74977,-1.749764 1.75,1.75 0 0 1 1.74977,-1.749764 z M 39.750028,56.500098 a 1.75,1.75 0 0 1 1.749764,1.75028 1.75,1.75 0 0 1 -1.749764,1.74976 1.75,1.75 0 0 1 -1.75028,-1.74976 1.75,1.75 0 0 1 1.75028,-1.75028 z m 65.499882,0 a 1.75,1.75 0 0 1 1.75028,1.75028 1.75,1.75 0 0 1 -1.75028,1.74976 1.75,1.75 0 0 1 -1.74977,-1.74976 1.75,1.75 0 0 1 1.74977,-1.75028 z" />
    <text
       xml:space="preserve"
       style="font-size:10.5833px;line-height:1.25;font-family:'Liberation Serif';-inkscape-font-specification:'Liberation Serif';fill:#ff0000;stroke-width:0.264583"
       x="46.356403"
       y="44.423561"
       id="text1"><tspan
         sodipodi:role="line"
         id="tspan1"
         style="fill:#ff0000;stroke-width:0.264583"
         x="46.356403"
         y="44.423561">COVER</tspan></text>
    <path
       id="rect846-9"
       style="fill:#b3b3b3;stroke-width:0.806145"
       d="M 22.99982,120.00018 C 21.33782,120.00018 20,121.33801 20,123 v 36.00038 c 0,1.662 1.33782,2.99982 2.99982,2.99982 h 8.99996 0.0382 c 9e-5,-0.003 9.4e-4,-0.005 0.001,-0.008 a 3,3 0 0 0 2.90318,-2.70061 h 0.0579 v -0.29146 -3.58686 c 0,-1.89103 1.5222,-3.41322 3.41323,-3.41322 h 3.17345 c 1.89104,0 3.41323,1.52219 3.41323,3.41322 v 3.58686 0.0129 c 8.8e-4,1.5e-4 0.002,3.7e-4 0.003,5.2e-4 a 3,3 0 0 0 2.32389,2.85254 v 0.13384 h 0.67334 47.15371 v -0.0114 c 0,-0.006 0.002,-0.0116 0.002,-0.0176 a 3,3 0 0 0 0.1447,0.0289 3,3 0 0 0 2.96364,-2.81481 h 0.0408 v -3.77187 c 0,-1.89103 1.5222,-3.41322 3.41323,-3.41322 h 3.85713 v -0.0847 a 3,3 0 0 0 0.4253,0.0847 3,3 0 0 0 3.00033,-3.00034 3,3 0 0 0 -0.0119,-0.061 h 0.0119 v -15.93824 -0.008 c -1.7e-4,0 -3.4e-4,1e-5 -5.2e-4,0 a 3,3 0 0 0 -2.72231,-2.97088 v -0.0217 h -0.2775 -4.28243 c -1.89103,0 -3.41323,-1.52219 -3.41323,-3.41322 v -3.71544 h -0.03 A 3,3 0 0 0 95.38321,120.0165 V 120 h -0.0826 -47.29996 -0.43873 v 0.0873 a 3,3 0 0 0 -2.56109,2.91248 3,3 0 0 0 0.0155,0.0785 c -0.005,4.9e-4 -0.0102,0.002 -0.0155,0.003 v 3.50573 c 0,1.89104 -1.52219,3.41323 -3.41322,3.41323 h -3.17345 c -1.89104,0 -3.41323,-1.52219 -3.41323,-3.41323 v -3.16104 c -0.0114,-2.7e-4 -0.0218,-0.004 -0.0331,-0.004 a 3,3 0 0 0 0.0331,-0.42168 3,3 0 0 0 -2.73679,-2.94763 v -0.0522 h -0.26355 z" />
    <text
       xml:space="preserve"
       style="font-size:10.5833px;line-height:1.25;font-family:'Liberation Serif';-inkscape-font-specification:'Liberation Serif';fill:#ff0000;stroke-width:0.264583"
       x="44.640942"
       y="144.45216"
       id="text2"><tspan
         sodipodi:role="line"
         id="tspan2"
         style="fill:#ff0000;stroke-width:0.264583"
         x="44.640942"
         y="144.45216">SPACER</tspan></text>
    <path
       id="rect846-3"
       style="fill:#b3b3b3;stroke-width:0.806145"
       d="m 23.000146,70 c -1.661992,0 -3.000333,1.33837 -3.000333,3.00033 v 35.99987 c 0,1.662 1.338341,2.99982 3.000333,2.99982 h 83.000104 c 1.662,0 2.99982,-1.33782 2.99982,-2.99982 V 73.00033 C 109.00007,71.33837 107.66225,70 106.00025,70 Z m 16.749882,1.99988 a 1.75,1.75 0 0 1 1.749764,1.75028 1.75,1.75 0 0 1 -1.749764,1.74976 1.75,1.75 0 0 1 -1.75028,-1.74976 1.75,1.75 0 0 1 1.75028,-1.75028 z m 65.499882,0 a 1.75,1.75 0 0 1 1.75028,1.75028 1.75,1.75 0 0 1 -1.75028,1.74976 1.75,1.75 0 0 1 -1.74977,-1.74976 1.75,1.75 0 0 1 1.74977,-1.75028 z M 39.750028,106.5001 a 1.75,1.75 0 0 1 1.749764,1.74976 1.75,1.75 0 0 1 -1.749764,1.74977 1.75,1.75 0 0 1 -1.75028,-1.74977 1.75,1.75 0 0 1 1.75028,-1.74976 z m 65.499882,0 a 1.75,1.75 0 0 1 1.75028,1.74976 1.75,1.75 0 0 1 -1.75028,1.74977 1.75,1.75 0 0 1 -1.74977,-1.74977 1.75,1.75 0 0 1 1.74977,-1.74976 z" />
    <text
       xml:space="preserve"
       style="font-size:10.5833px;line-height:1.25;font-family:'Liberation Serif';-inkscape-font-specification:'Liberation Serif';fill:#ff0000;stroke-width:0.264583"
       x="35.209835"
       y="94.451981"
       id="text3"><tspan
         sodipodi:role="line"
         id="tspan3"
         style="fill:#ff0000;stroke-width:0.264583"
         x="35.209835"
         y="94.451981">BASEPLATE</tspan></text>
  </g>
</svg>
