<?xml version="1.0" encoding="UTF-8" standalone="no"?>
<!-- Created with Inkscape (http://www.inkscape.org/) -->

<svg
   width="210mm"
   height="297mm"
   viewBox="0 0 210 297"
   version="1.1"
   id="svg5"
   inkscape:version="1.3 (0e150ed6c4, 2023-07-21)"
   sodipodi:docname="arcano-nes-chiptune-synth-baseplate-spacer.svg"
   xmlns:inkscape="http://www.inkscape.org/namespaces/inkscape"
   xmlns:sodipodi="http://sodipodi.sourceforge.net/DTD/sodipodi-0.dtd"
   xmlns="http://www.w3.org/2000/svg"
   xmlns:svg="http://www.w3.org/2000/svg"
   xmlns:rdf="http://www.w3.org/1999/02/22-rdf-syntax-ns#"
   xmlns:cc="http://creativecommons.org/ns#"
   xmlns:dc="http://purl.org/dc/elements/1.1/">
  <title
     id="title1524">Arcano NES Chiptune Synth baseplate spacer</title>
  <sodipodi:namedview
     id="namedview7"
     pagecolor="#505050"
     bordercolor="#eeeeee"
     borderopacity="1"
     inkscape:pageshadow="0"
     inkscape:pageopacity="0"
     inkscape:pagecheckerboard="0"
     inkscape:document-units="mm"
     showgrid="false"
     showguides="true"
     inkscape:guide-bbox="true"
     inkscape:zoom="2.0938813"
     inkscape:cx="148.528"
     inkscape:cy="150.19954"
     inkscape:window-width="1920"
     inkscape:window-height="1057"
     inkscape:window-x="2675"
     inkscape:window-y="1121"
     inkscape:window-maximized="1"
     inkscape:current-layer="layer1"
     inkscape:showpageshadow="0"
     inkscape:deskcolor="#d1d1d1" />
  <defs
     id="defs2" />
  <g
     inkscape:label="Layer 1"
     inkscape:groupmode="layer"
     id="layer1">
    <path
       id="rect846"
       style="fill:#ff7f2a;stroke-width:0.806145"
       d="M 2.9998169 0 C 1.3378216 6.2665733e-16 1.2533172e-15 1.3378216 0 2.9998169 L 0 39.000203 C 6.2665733e-16 40.6622 1.3378216 42.00002 2.9998169 42.00002 L 11.999784 42.00002 L 12.038025 42.00002 C 12.038115 41.99736 12.038961 41.994927 12.039058 41.992269 A 3 3 0 0 0 14.94224 39.291659 L 15.000118 39.291659 L 15.000118 39.000203 L 15.000118 35.413342 C 15.000118 33.522309 16.522313 32.000114 18.413346 32.000114 L 21.586796 32.000114 C 23.477829 32.000114 25.000024 33.522309 25.000024 35.413342 L 25.000024 39.000203 L 25.000024 39.013123 C 25.000901 39.013272 25.001732 39.013489 25.002608 39.013639 A 3 3 0 0 0 27.326497 41.866178 L 27.326497 42.00002 L 27.999841 42.00002 L 75.153552 42.00002 L 75.153552 41.988652 C 75.153552 41.982636 75.155065 41.977088 75.155103 41.971082 A 3 3 0 0 0 75.299797 42.00002 A 3 3 0 0 0 78.26344 39.185205 L 78.304264 39.185205 L 78.304264 35.413342 C 78.304264 33.522309 79.82646 32.000114 81.717493 32.000114 L 85.574622 32.000114 L 85.574622 31.915365 A 3 3 0 0 0 85.999919 32.000114 A 3 3 0 0 0 89.000252 28.99978 A 3 3 0 0 0 88.988367 28.938802 L 89.000252 28.938802 L 89.000252 13.00024 L 89.000252 12.992489 C 89.000078 12.992484 88.99991 12.992494 88.999736 12.992489 A 3 3 0 0 0 86.277421 10.021611 L 86.277421 9.9999064 L 85.999919 9.9999064 L 81.717493 9.9999064 C 79.82646 9.9999064 78.304264 8.4777113 78.304264 6.5866781 L 78.304264 2.8711426 L 78.274292 2.8711426 A 3 3 0 0 0 75.382479 0.016536458 L 75.382479 0 L 75.299797 0 L 27.999841 0 L 27.561108 0 L 27.561108 0.087333171 A 3 3 0 0 0 25.000024 2.9998169 A 3 3 0 0 0 25.015527 3.0783651 C 25.01022 3.078853 25.005341 3.08049 25.000024 3.0809489 L 25.000024 6.5866781 C 25.000024 8.4777113 23.477829 9.9999064 21.586796 9.9999064 L 18.413346 9.9999064 C 16.522313 9.9999064 15.000118 8.4777113 15.000118 6.5866781 L 15.000118 3.4256307 C 14.988771 3.4253617 14.978357 3.4218981 14.967045 3.4214966 A 3 3 0 0 0 15.000118 2.9998169 A 3 3 0 0 0 12.263334 0.052193197 L 12.263334 0 L 11.999784 0 L 2.9998169 0 z " />
  </g>
  <metadata
     id="metadata1522">
    <rdf:RDF>
      <cc:Work
         rdf:about="">
        <dc:title>Arcano NES Chiptune Synth baseplate spacer</dc:title>
      </cc:Work>
    </rdf:RDF>
  </metadata>
</svg>
