<?xml version="1.0" encoding="UTF-8" standalone="no"?>
<!-- Created with Inkscape (http://www.inkscape.org/) -->

<svg
   width="148mm"
   height="210mm"
   viewBox="0 0 148 210"
   version="1.1"
   id="svg1"
   inkscape:version="1.3 (0e150ed6c4, 2023-07-21)"
   sodipodi:docname="arcano-nes-chiptune-synth-case.svg"
   xmlns:inkscape="http://www.inkscape.org/namespaces/inkscape"
   xmlns:sodipodi="http://sodipodi.sourceforge.net/DTD/sodipodi-0.dtd"
   xmlns="http://www.w3.org/2000/svg"
   xmlns:svg="http://www.w3.org/2000/svg">
  <sodipodi:namedview
     id="namedview1"
     pagecolor="#505050"
     bordercolor="#eeeeee"
     borderopacity="1"
     inkscape:showpageshadow="0"
     inkscape:pageopacity="0"
     inkscape:pagecheckerboard="0"
     inkscape:deskcolor="#d1d1d1"
     inkscape:document-units="mm"
     inkscape:zoom="1.0469406"
     inkscape:cx="384.93109"
     inkscape:cy="334.3074"
     inkscape:window-width="1920"
     inkscape:window-height="1017"
     inkscape:window-x="2712"
     inkscape:window-y="1070"
     inkscape:window-maximized="1"
     inkscape:current-layer="layer1" />
  <defs
     id="defs1" />
  <g
     inkscape:label="Layer 1"
     inkscape:groupmode="layer"
     id="layer1">
    <path
       id="rect846"
       style="fill:#b3b3b3;stroke-width:0.806145"
       d="M 39.646159 69.999862 C 39.647859 70.008062 39.647111 70.017003 39.648743 70.025183 C 38.140005 70.202958 37.002287 71.480509 36.999809 72.999679 C 37.001509 73.028129 37.00351 73.056555 37.00601 73.084945 C 37.00401 73.084662 37.001809 73.084715 36.999809 73.084428 L 36.999809 78.999829 L 23.274032 78.999829 C 21.460165 78.999829 19.999813 80.460186 19.999813 82.274048 L 19.999813 87.725911 C 19.999813 89.539777 21.460165 90.999613 23.274032 90.999613 L 36.999809 90.999613 L 36.999809 109.00007 L 36.999809 109.14476 C 37.002909 109.14276 37.006527 109.14314 37.009627 109.14114 C 37.084927 110.73871 38.400284 111.99632 39.999626 111.99988 C 40.064006 111.99688 40.128295 111.99241 40.192379 111.98541 C 40.191814 111.99041 40.19183 111.99488 40.191345 111.99988 L 105.99973 111.99988 C 107.6617 111.99988 109.00007 110.66201 109.00007 109.00007 L 109.00007 105.4995 C 108.99997 103.84263 107.65664 102.4995 105.99973 102.49969 L 90.617208 102.49969 C 89.721192 102.49969 88.999736 101.77824 88.999736 100.88221 L 88.999736 99.116947 C 88.999736 98.220922 89.721192 97.499475 90.617208 97.499475 L 105.99973 97.499475 C 107.65664 97.499665 108.99997 96.156564 109.00007 94.499658 L 109.00007 72.999679 C 109.00007 71.337708 107.6617 69.999862 105.99973 69.999862 L 85.999919 69.999862 L 85.806132 69.999862 L 85.806132 70.013814 C 84.230718 70.11561 83.003738 71.42098 82.999585 72.999679 C 83.001885 73.044529 83.005103 73.089328 83.009403 73.134037 L 82.999585 73.134037 L 82.999585 78.694938 C 82.999585 81.07987 81.079871 83.000102 78.694938 83.000102 L 77.304842 83.000102 C 74.919926 83.000102 72.999679 81.07987 72.999679 78.694938 L 72.999679 72.999679 C 72.999578 71.342982 71.656553 69.999963 69.999862 69.999862 C 69.973142 70.001362 69.946433 70.003246 69.919763 70.005546 C 69.920863 70.003746 69.921247 70.001662 69.922347 69.999862 L 39.999626 69.999862 L 39.646159 69.999862 z M 39.750028 72.000256 A 1.75 1.75 0 0 1 41.499792 73.75002 A 1.75 1.75 0 0 1 39.750028 75.499784 A 1.75 1.75 0 0 1 37.999748 73.75002 A 1.75 1.75 0 0 1 39.750028 72.000256 z M 105.24991 72.000256 A 1.75 1.75 0 0 1 107.00019 73.75002 A 1.75 1.75 0 0 1 105.24991 75.499784 A 1.75 1.75 0 0 1 103.50014 73.75002 A 1.75 1.75 0 0 1 105.24991 72.000256 z M 39.750028 106.49996 A 1.75 1.75 0 0 1 41.499792 108.25024 A 1.75 1.75 0 0 1 39.750028 110 A 1.75 1.75 0 0 1 37.999748 108.25024 A 1.75 1.75 0 0 1 39.750028 106.49996 z M 105.24991 106.49996 A 1.75 1.75 0 0 1 107.00019 108.25024 A 1.75 1.75 0 0 1 105.24991 110 A 1.75 1.75 0 0 1 103.50014 108.25024 A 1.75 1.75 0 0 1 105.24991 106.49996 z " />
    <text
       xml:space="preserve"
       style="font-size:10.5833px;line-height:1.25;font-family:'Liberation Serif';-inkscape-font-specification:'Liberation Serif';fill:#ff0000;stroke-width:0.264583"
       x="46.356403"
       y="94.423424"
       id="text1"><tspan
         sodipodi:role="line"
         id="tspan1"
         style="fill:#ff0000;stroke-width:0.264583"
         x="46.356403"
         y="94.423424">COVER</tspan></text>
    <path
       id="rect846-9"
       style="fill:#b3b3b3;stroke-width:0.806145"
       d="M 22.999817,20.000004 C 21.337822,20.000004 20,21.337826 20,22.999821 v 36.000386 c 0,1.661997 1.337822,2.999817 2.999817,2.999817 h 8.999967 0.03824 c 9e-5,-0.0027 9.36e-4,-0.0051 10e-4,-0.0078 a 3,3 0 0 0 2.903182,-2.70061 h 0.05788 v -0.291456 -3.586861 c 0,-1.891033 1.522195,-3.413228 3.413228,-3.413228 h 3.17345 c 1.891033,0 3.413228,1.522195 3.413228,3.413228 v 3.586861 0.01292 c 8.77e-4,1.49e-4 0.0017,3.66e-4 0.0026,5.16e-4 a 3,3 0 0 0 2.323889,2.852539 v 0.133842 h 0.673344 47.153711 v -0.01137 c 0,-0.006 0.0015,-0.01156 0.0016,-0.01757 a 3,3 0 0 0 0.144694,0.02894 3,3 0 0 0 2.96364,-2.814815 h 0.0408 v -3.771863 c 0,-1.891033 1.5222,-3.413228 3.41323,-3.413228 h 3.85713 v -0.08475 a 3,3 0 0 0 0.4253,0.08475 3,3 0 0 0 3.00033,-3.000334 3,3 0 0 0 -0.0119,-0.06098 h 0.0119 v -15.938562 -0.0078 c -1.7e-4,-5e-6 -3.4e-4,5e-6 -5.2e-4,0 a 3,3 0 0 0 -2.72231,-2.970878 v -0.0217 h -0.2775 -4.28243 c -1.89103,0 -3.41323,-1.522195 -3.41323,-3.413228 v -3.71544 h -0.03 A 3,3 0 0 0 95.382429,20.01654 V 20 H 95.299799 47.999843 47.56111 v 0.08733 a 3,3 0 0 0 -2.561084,2.912484 3,3 0 0 0 0.0155,0.07855 c -0.0053,4.88e-4 -0.01019,0.0021 -0.0155,0.0026 v 3.505729 c 0,1.891033 -1.522195,3.413228 -3.413228,3.413228 h -3.17345 c -1.891033,0 -3.413228,-1.522195 -3.413228,-3.413228 V 23.42565 c -0.01135,-2.69e-4 -0.02176,-0.0037 -0.03307,-0.0041 a 3,3 0 0 0 0.03307,-0.421684 3,3 0 0 0 -2.736784,-2.947624 v -0.05219 h -0.26355 z" />
    <text
       xml:space="preserve"
       style="font-size:10.5833px;line-height:1.25;font-family:'Liberation Serif';-inkscape-font-specification:'Liberation Serif';fill:#ff0000;stroke-width:0.264583"
       x="44.640942"
       y="44.451988"
       id="text2"><tspan
         sodipodi:role="line"
         id="tspan2"
         style="fill:#ff0000;stroke-width:0.264583"
         x="44.640942"
         y="44.451988">SPACER</tspan></text>
    <path
       id="rect846-3"
       style="fill:#b3b3b3;stroke-width:0.806145"
       d="M 23.000146 119.99991 C 21.338154 119.99991 19.999813 121.33828 19.999813 123.00024 L 19.999813 159.00011 C 19.999813 160.66211 21.338154 161.99993 23.000146 161.99993 L 106.00025 161.99993 C 107.66225 161.99993 109.00007 160.66211 109.00007 159.00011 L 109.00007 123.00024 C 109.00007 121.33828 107.66225 119.99991 106.00025 119.99991 L 23.000146 119.99991 z M 39.750028 121.99979 A 1.75 1.75 0 0 1 41.499792 123.75007 A 1.75 1.75 0 0 1 39.750028 125.49983 A 1.75 1.75 0 0 1 37.999748 123.75007 A 1.75 1.75 0 0 1 39.750028 121.99979 z M 105.24991 121.99979 A 1.75 1.75 0 0 1 107.00019 123.75007 A 1.75 1.75 0 0 1 105.24991 125.49983 A 1.75 1.75 0 0 1 103.50014 123.75007 A 1.75 1.75 0 0 1 105.24991 121.99979 z M 39.750028 156.50001 A 1.75 1.75 0 0 1 41.499792 158.24977 A 1.75 1.75 0 0 1 39.750028 159.99954 A 1.75 1.75 0 0 1 37.999748 158.24977 A 1.75 1.75 0 0 1 39.750028 156.50001 z M 105.24991 156.50001 A 1.75 1.75 0 0 1 107.00019 158.24977 A 1.75 1.75 0 0 1 105.24991 159.99954 A 1.75 1.75 0 0 1 103.50014 158.24977 A 1.75 1.75 0 0 1 105.24991 156.50001 z " />
    <text
       xml:space="preserve"
       style="font-size:10.5833px;line-height:1.25;font-family:'Liberation Serif';-inkscape-font-specification:'Liberation Serif';fill:#ff0000;stroke-width:0.264583"
       x="35.209835"
       y="144.45189"
       id="text3"><tspan
         sodipodi:role="line"
         id="tspan3"
         style="fill:#ff0000;stroke-width:0.264583"
         x="35.209835"
         y="144.45189">BASEPLATE</tspan></text>
  </g>
</svg>
