<?xml version="1.0" encoding="UTF-8" standalone="no"?>
<!-- Created with Inkscape (http://www.inkscape.org/) -->

<svg
   width="210mm"
   height="297mm"
   viewBox="0 0 210 297"
   version="1.1"
   id="svg5"
   inkscape:version="1.3 (0e150ed6c4, 2023-07-21)"
   sodipodi:docname="arcano-nes-chiptune-synth-cover.svg"
   xmlns:inkscape="http://www.inkscape.org/namespaces/inkscape"
   xmlns:sodipodi="http://sodipodi.sourceforge.net/DTD/sodipodi-0.dtd"
   xmlns="http://www.w3.org/2000/svg"
   xmlns:svg="http://www.w3.org/2000/svg"
   xmlns:rdf="http://www.w3.org/1999/02/22-rdf-syntax-ns#"
   xmlns:cc="http://creativecommons.org/ns#"
   xmlns:dc="http://purl.org/dc/elements/1.1/">
  <title
     id="title1524">Arcano NES Chiptune Synth cover</title>
  <sodipodi:namedview
     id="namedview7"
     pagecolor="#505050"
     bordercolor="#eeeeee"
     borderopacity="1"
     inkscape:pageshadow="0"
     inkscape:pageopacity="0"
     inkscape:pagecheckerboard="0"
     inkscape:document-units="mm"
     showgrid="false"
     showguides="true"
     inkscape:guide-bbox="true"
     inkscape:zoom="5.6568542"
     inkscape:cx="295.21708"
     inkscape:cy="123.6553"
     inkscape:window-width="1920"
     inkscape:window-height="1017"
     inkscape:window-x="1912"
     inkscape:window-y="-8"
     inkscape:window-maximized="1"
     inkscape:current-layer="layer1"
     inkscape:showpageshadow="0"
     inkscape:deskcolor="#d1d1d1" />
  <defs
     id="defs2" />
  <g
     inkscape:label="Layer 1"
     inkscape:groupmode="layer"
     id="layer1">
    <path
       id="rect846"
       style="fill:#ff7f2a;stroke-width:0.806145"
       d="m 19.646346,0 c 0.0017,0.008157 9.68e-4,0.01713633 0.0026,0.02532145 -1.508742,0.17777498 -2.646456,1.45532135 -2.648934,2.97449545 0.0017,0.02845 0.0037,0.056875 0.0062,0.085266 -0.002,-2.825e-4 -0.0042,-2.296e-4 -0.0062,-5.168e-4 V 8.9999674 H 3.2742187 C 1.4603481,8.9999674 0,10.460317 0,12.274186 v 5.451864 c 0,1.813869 1.4603481,3.273702 3.2742187,3.273702 H 16.999996 v 18.000451 0.144694 c 0.0031,-0.0016 0.0067,-0.002 0.0098,-0.0036 0.0753,1.597576 1.390653,2.855182 2.989999,2.85874 0.06438,-0.0026 0.128669,-0.0072 0.192753,-0.01395 -5.65e-4,0.0046 -5.15e-4,0.0094 -10e-4,0.01395 h 65.808387 c 1.66197,0 3.000333,-1.337832 3.000333,-2.999817 v -3.500297 c -1.01e-4,-1.656911 -1.343424,-3.000001 -3.000333,-2.999817 h -15.38254 c -0.896026,0 -1.617472,-0.721446 -1.617472,-1.617472 v -1.765267 c 0,-0.896027 0.721446,-1.617473 1.617472,-1.617473 h 15.382524 c 1.656913,1.84e-4 3.000232,-1.342904 3.000333,-2.999817 V 2.9998169 C 89.000252,1.337842 87.661889,0 85.999919,0 H 66.000106 65.806319 V 0.01395264 C 64.230897,0.11574913 63.003925,1.421114 62.999772,2.9998169 c 0.0023,0.044854 0.0055,0.089652 0.0098,0.1343587 h -0.0098 v 5.5609009 c 0,2.3849405 -1.919706,4.3051635 -4.304647,4.3051635 h -1.390096 c -2.384928,0 -4.305163,-1.920223 -4.305163,-4.3051635 V 2.9998169 C 52.999765,1.3431158 51.656748,1.010557e-4 50.000049,0 49.973325,0.00153736 49.946623,0.00343235 49.91995,0.00568441 49.92102,0.00391591 49.92146,0.00176525 49.922534,0 H 19.999813 Z"
       sodipodi:nodetypes="ccccccsssscccccccssccsssccccsccccccsssscccccc" />
    <circle
       style="fill:#000080;stroke-width:0.635449"
       id="path1271"
       cx="19.75"
       cy="3.75"
       r="1.75" />
    <circle
       style="fill:#000080;stroke-width:0.635449"
       id="path1271-6"
       cx="85.25"
       cy="3.75"
       r="1.75" />
    <circle
       style="fill:#000080;stroke-width:0.635449"
       id="path1271-4"
       cx="19.75"
       cy="38.25"
       r="1.75" />
    <circle
       style="fill:#000080;stroke-width:0.635449"
       id="path1271-6-4"
       cx="85.25"
       cy="38.25"
       r="1.75" />
  </g>
  <metadata
     id="metadata1522">
    <rdf:RDF>
      <cc:Work
         rdf:about="">
        <dc:title>Arcano NES Chiptune Synth cover</dc:title>
      </cc:Work>
    </rdf:RDF>
  </metadata>
</svg>
